<svg xmlns="http://www.w3.org/2000/svg" version="1.1" xmlns:xlink="http://www.w3.org/1999/xlink" viewBox="0 0 200 200"><rect width="200" height="200" fill="url('#gradient')"></rect><defs><linearGradient id="gradient" gradientTransform="rotate(45 0.5 0.5)"><stop offset="0%" stop-color="#0d6f6f"></stop><stop offset="100%" stop-color="#50738b"></stop></linearGradient></defs><g><g fill="#ffffff" transform="matrix(4.974898785425101,0,0,4.974898785425101,36.87298588897535,135.3510290508811)" stroke="#2a4a46" stroke-width="0.5"><path d="M8.41-3.78L8.41-3.78Q8.41-4.53 7.88-4.95Q7.34-5.37 6.01-5.82Q4.67-6.27 3.82-6.69L3.82-6.69Q1.05-8.05 1.05-10.42L1.05-10.42Q1.05-11.60 1.74-12.50Q2.43-13.41 3.69-13.91Q4.95-14.41 6.52-14.41L6.52-14.41Q8.06-14.41 9.27-13.87Q10.49-13.32 11.16-12.31Q11.84-11.30 11.84-10L11.84-10L8.42-10Q8.42-10.87 7.89-11.35Q7.35-11.83 6.45-11.83L6.45-11.83Q5.53-11.83 5.00-11.42Q4.46-11.02 4.46-10.39L4.46-10.39Q4.46-9.84 5.05-9.40Q5.63-8.96 7.11-8.48Q8.58-8.01 9.53-7.46L9.53-7.46Q11.84-6.13 11.84-3.80L11.84-3.80Q11.84-1.93 10.43-0.87Q9.02 0.20 6.57 0.20L6.57 0.20Q4.84 0.20 3.44-0.42Q2.04-1.04 1.33-2.12Q0.63-3.20 0.63-4.61L0.63-4.61L4.06-4.61Q4.06-3.47 4.65-2.92Q5.24-2.38 6.57-2.38L6.57-2.38Q7.42-2.38 7.92-2.75Q8.41-3.12 8.41-3.78ZM21.32-14.22L24.75-14.22L24.75-4.91Q24.75-3.33 24.07-2.17Q23.40-1.02 22.14-0.41Q20.88 0.20 19.16 0.20L19.16 0.20Q16.56 0.20 15.07-1.15Q13.57-2.50 13.54-4.84L13.54-4.84L13.54-14.22L16.99-14.22L16.99-4.78Q17.05-2.44 19.16-2.44L19.16-2.44Q20.22-2.44 20.77-3.03Q21.32-3.61 21.32-4.93L21.32-4.93L21.32-14.22Z"></path></g></g></svg>